<svg width="16" height="16" viewBox="0 0 16 16" fill="none" xmlns="http://www.w3.org/2000/svg">
<path fill-rule="evenodd" clip-rule="evenodd" d="M4.3236 12.2856C7.0616 11.8856 8.9468 11.92 11.6884 12.2996C11.8869 12.3284 12.0684 12.4281 12.1992 12.5802C12.33 12.7323 12.4013 12.9266 12.4 13.1272C12.4 13.3192 12.334 13.5056 12.2148 13.6512C12.007 13.9051 11.7942 14.1548 11.5764 14.4H12.6328C12.6992 14.3208 12.766 14.24 12.8336 14.158C13.0709 13.8671 13.2003 13.5031 13.2 13.1276C13.2 12.3176 12.6088 11.6196 11.798 11.5076C8.9916 11.1192 7.03 11.082 4.208 11.4944C3.3888 11.614 2.8 12.3228 2.8 13.1384C2.8 13.5004 2.918 13.8584 3.1416 14.1484C3.2076 14.234 3.2728 14.318 3.3376 14.4004H4.3684C4.16577 14.1579 3.96813 13.9111 3.7756 13.6604C3.66119 13.5104 3.59947 13.3268 3.6 13.138C3.6 12.7072 3.9096 12.346 4.3236 12.2856ZM8 8.40005C8.31518 8.40005 8.62726 8.33797 8.91844 8.21736C9.20962 8.09675 9.4742 7.91997 9.69706 7.69711C9.91992 7.47425 10.0967 7.20967 10.2173 6.91849C10.3379 6.62731 10.4 6.31522 10.4 6.00005C10.4 5.68488 10.3379 5.37279 10.2173 5.08161C10.0967 4.79043 9.91992 4.52585 9.69706 4.30299C9.4742 4.08013 9.20962 3.90335 8.91844 3.78274C8.62726 3.66213 8.31518 3.60005 8 3.60005C7.36348 3.60005 6.75303 3.85291 6.30295 4.30299C5.85286 4.75308 5.6 5.36353 5.6 6.00005C5.6 6.63657 5.85286 7.24702 6.30295 7.69711C6.75303 8.14719 7.36348 8.40005 8 8.40005ZM8 9.20005C8.8487 9.20005 9.66263 8.86291 10.2627 8.26279C10.8629 7.66267 11.2 6.84874 11.2 6.00005C11.2 5.15136 10.8629 4.33742 10.2627 3.73731C9.66263 3.13719 8.8487 2.80005 8 2.80005C7.15131 2.80005 6.33738 3.13719 5.73726 3.73731C5.13714 4.33742 4.8 5.15136 4.8 6.00005C4.8 6.84874 5.13714 7.66267 5.73726 8.26279C6.33738 8.86291 7.15131 9.20005 8 9.20005Z" fill="black"/>
<path fill-rule="evenodd" clip-rule="evenodd" d="M8 15.2C11.9764 15.2 15.2 11.9764 15.2 8C15.2 4.0236 11.9764 0.8 8 0.8C4.0236 0.8 0.8 4.0236 0.8 8C0.8 11.9764 4.0236 15.2 8 15.2ZM8 16C12.4184 16 16 12.4184 16 8C16 3.5816 12.4184 0 8 0C3.5816 0 0 3.5816 0 8C0 12.4184 3.5816 16 8 16Z" fill="black"/>
</svg>
